<?xml version="1.0" standalone="no"?>
<!DOCTYPE svg PUBLIC "-//W3C//DTD SVG 20010904//EN"
 "http://www.w3.org/TR/2001/REC-SVG-20010904/DTD/svg10.dtd">
<svg version="1.0" xmlns="http://www.w3.org/2000/svg"
 width="2250.000000pt" height="2250.000000pt" viewBox="0 0 2250.000000 2250.000000"
 preserveAspectRatio="xMidYMid meet">
<metadata>
Created by potrace 1.14, written by Peter Selinger 2001-2017
</metadata>
<g transform="translate(0.000000,2250.000000) scale(0.100000,-0.100000)"
fill="#000000" stroke="none">
<path d="M11387 21404 c-1 -1 -101 -5 -222 -9 -121 -4 -242 -8 -270 -10 -129
-7 -271 -17 -285 -20 -8 -2 -55 -6 -105 -10 -49 -4 -99 -9 -110 -11 -10 -2
-49 -6 -85 -10 -36 -3 -72 -7 -80 -9 -9 -2 -43 -6 -75 -10 -33 -4 -67 -9 -77
-11 -9 -1 -38 -5 -65 -9 -26 -3 -70 -10 -98 -15 -27 -5 -68 -11 -90 -14 -86
-12 -427 -76 -505 -96 -32 -8 -50 -12 -120 -26 -14 -2 -61 -14 -105 -26 -44
-11 -105 -26 -135 -33 -54 -13 -175 -47 -355 -100 -49 -14 -189 -59 -310 -100
-1376 -459 -2631 -1187 -3720 -2159 -251 -224 -605 -579 -800 -801 -38 -44
-74 -85 -80 -91 -5 -6 -32 -37 -60 -69 -27 -32 -54 -63 -60 -69 -5 -6 -36 -44
-69 -83 -32 -40 -60 -73 -62 -73 -15 0 74 134 132 200 13 14 31 35 41 46 10
12 84 91 164 175 198 208 266 291 289 356 9 23 1 19 -42 -27 -29 -31 -82 -89
-118 -129 -36 -41 -70 -79 -75 -85 -362 -399 -870 -1090 -1158 -1576 -31 -52
-60 -99 -64 -105 -5 -5 -14 -21 -21 -35 -6 -14 -30 -56 -52 -95 -284 -503
-564 -1134 -749 -1693 -66 -198 -187 -607 -206 -697 -2 -11 -25 -110 -50 -220
-25 -110 -47 -234 -49 -275 -3 -41 -8 -95 -11 -120 -6 -39 -98 -508 -111 -565
-17 -73 -54 -282 -59 -340 -4 -38 -10 -74 -13 -79 -3 -5 0 -6 7 -1 13 7 13 0
-9 -125 -5 -30 -12 -75 -15 -100 -3 -25 -10 -68 -16 -96 -8 -43 -8 -87 1 -114
1 -3 9 22 18 54 18 63 37 82 44 44 12 -69 -17 -382 -60 -638 -14 -81 -5 -439
14 -600 12 -100 36 -215 60 -280 17 -48 23 -79 18 -102 -8 -40 -8 -281 0 -361
18 -183 49 -378 92 -583 19 -93 37 -176 39 -184 2 -8 24 -96 49 -195 26 -99
48 -187 50 -195 9 -37 57 -204 86 -300 17 -58 35 -118 40 -135 8 -32 51 -166
145 -452 31 -95 60 -173 66 -173 6 0 7 4 4 10 -3 5 -2 17 3 27 9 15 10 15 19
-3 6 -10 16 -44 23 -74 20 -86 51 -160 148 -358 49 -100 102 -222 117 -270 30
-98 27 -92 148 -302 50 -85 137 -247 195 -360 98 -192 130 -246 175 -295 20
-22 107 -151 107 -159 0 -16 166 -291 247 -411 88 -129 258 -364 272 -375 4
-3 22 -25 41 -50 19 -25 37 -47 40 -50 3 -3 32 -39 65 -80 32 -41 61 -77 65
-80 3 -3 50 -59 105 -125 54 -66 102 -122 105 -125 3 -3 43 -50 90 -105 47
-55 87 -102 90 -105 3 -3 39 -43 80 -90 264 -299 584 -610 953 -927 347 -298
1015 -769 1377 -971 25 -14 86 -48 135 -77 117 -68 212 -119 420 -225 149 -76
247 -122 529 -249 38 -17 155 -65 260 -107 105 -42 200 -79 211 -84 87 -38
473 -165 715 -235 232 -67 639 -166 775 -188 17 -3 64 -12 105 -21 94 -19 339
-61 445 -76 84 -11 124 -17 178 -25 33 -4 183 -21 277 -30 30 -3 75 -7 100
-10 341 -33 827 -45 1235 -30 110 4 218 8 240 10 22 1 85 6 140 9 55 4 116 9
135 11 19 2 69 7 110 10 41 4 86 8 100 10 14 2 54 7 90 10 36 4 73 9 83 11 10
2 45 6 78 9 33 4 70 8 82 11 12 2 72 11 132 20 61 8 120 17 133 20 12 2 34 6
50 9 150 28 221 41 367 71 94 20 197 42 230 51 33 8 69 17 80 19 58 11 354 91
515 140 560 171 1237 445 1400 567 33 25 81 53 107 63 121 44 253 98 313 126
177 86 470 261 695 417 61 41 140 96 176 121 36 25 111 76 165 114 218 154
303 211 381 260 45 28 115 83 155 122 40 38 150 137 243 219 298 262 416 384
466 482 13 26 47 68 74 93 97 86 281 276 379 390 169 197 313 394 509 696 64
98 85 123 181 212 25 24 56 62 67 84 22 42 31 57 164 243 97 136 190 278 241
370 72 129 75 150 15 99 -17 -14 -36 -24 -43 -22 -27 9 -15 55 51 186 60 119
105 215 189 402 84 188 295 740 327 860 3 8 32 103 65 210 50 161 173 619 194
723 12 57 18 83 32 152 20 92 21 97 39 190 24 131 50 284 60 358 7 47 16 111
20 137 2 14 6 50 10 80 3 30 8 66 10 80 2 14 7 59 11 100 3 41 8 93 9 115 10
108 17 208 21 285 6 124 5 553 -1 640 -10 149 -25 310 -30 330 -2 8 -7 44 -10
80 -4 36 -9 67 -11 69 -2 2 -4 -85 -5 -195 -1 -338 -17 -682 -44 -934 -2 -19
-7 -64 -10 -100 -3 -36 -13 -119 -21 -185 -8 -66 -17 -140 -20 -165 -6 -46
-11 -80 -18 -115 -2 -11 -7 -47 -11 -80 -3 -32 -8 -62 -10 -65 -3 -5 -9 -42
-21 -120 -3 -19 -7 -42 -9 -50 -3 -8 -7 -33 -11 -55 -3 -22 -10 -59 -15 -83
-5 -23 -12 -59 -15 -80 -3 -20 -8 -40 -10 -43 -2 -3 -6 -21 -9 -40 -11 -61
-65 -290 -106 -449 -199 -767 -523 -1537 -859 -2040 -20 -30 -69 -117 -108
-192 -203 -390 -552 -883 -887 -1254 -5 -6 -44 -49 -85 -94 -188 -210 -475
-496 -705 -705 -60 -55 -171 -161 -245 -235 -74 -75 -153 -149 -175 -165 -22
-17 -87 -68 -144 -114 -152 -122 -317 -242 -476 -348 -77 -51 -145 -97 -152
-103 -7 -5 -15 -10 -18 -10 -3 0 -33 -18 -65 -40 -32 -22 -62 -40 -65 -40 -4
0 -30 -15 -58 -34 -86 -56 -356 -210 -572 -326 -44 -23 -84 -46 -90 -50 -22
-16 -450 -232 -610 -308 -93 -44 -244 -112 -335 -152 -91 -39 -174 -75 -185
-80 -48 -20 -290 -111 -400 -150 -205 -71 -300 -101 -500 -159 -71 -20 -339
-86 -385 -95 -14 -3 -79 -16 -145 -29 -66 -14 -138 -27 -160 -31 -22 -3 -62
-9 -90 -15 -27 -5 -75 -12 -105 -16 -30 -3 -66 -8 -80 -10 -14 -3 -50 -7 -80
-10 -30 -3 -71 -7 -90 -10 -143 -16 -417 -32 -425 -23 -3 2 1 5 7 5 24 1 153
14 218 23 36 5 90 12 120 15 47 6 394 63 485 80 142 27 536 118 690 159 159
43 489 145 655 203 153 53 535 200 555 213 6 4 33 15 60 25 28 10 86 35 130
55 44 21 135 63 203 94 174 81 537 269 594 308 14 10 29 18 32 18 11 0 260
148 416 249 347 222 698 480 935 685 38 34 85 75 104 91 202 173 473 443 651
645 204 233 215 250 63 103 -243 -237 -516 -496 -583 -553 -14 -12 -41 -36
-60 -53 -19 -18 -82 -73 -140 -122 -58 -49 -107 -92 -110 -95 -12 -13 -193
-153 -292 -226 -208 -154 -397 -277 -643 -419 -158 -91 -220 -125 -405 -223
-52 -27 -113 -67 -136 -89 -22 -21 -67 -56 -100 -78 -69 -46 -320 -175 -340
-175 -8 0 -14 -4 -14 -8 0 -5 -15 -14 -32 -20 -18 -6 -78 -29 -133 -52 -185
-77 -578 -214 -596 -208 -5 2 96 48 224 102 387 165 591 263 722 347 70 45 68
58 -2 24 -372 -181 -903 -393 -1348 -538 -169 -55 -379 -119 -435 -133 -8 -2
-82 -21 -165 -44 -134 -35 -429 -105 -495 -116 -14 -3 -59 -11 -100 -19 -97
-20 -106 -21 -160 -30 -64 -9 -92 -14 -115 -19 -11 -2 -45 -7 -75 -11 -30 -4
-62 -9 -70 -10 -14 -3 -87 -13 -140 -20 -14 -2 -59 -7 -100 -10 -41 -4 -77 -9
-80 -10 -3 -2 -45 -6 -95 -10 -49 -3 -108 -8 -130 -10 -252 -23 -873 -23
-1080 0 -16 2 -64 6 -105 10 -41 4 -120 12 -175 20 -95 12 -79 13 295 15 514
2 791 9 1020 25 41 3 113 7 160 10 47 3 101 7 120 10 19 2 68 7 108 10 41 4
81 8 90 10 9 1 46 6 82 10 36 3 76 8 90 10 14 2 75 11 135 20 151 22 180 29
307 76 61 23 154 50 207 61 112 23 93 18 246 56 421 105 874 250 1255 402 58
23 128 51 155 62 28 11 82 33 120 50 70 30 88 38 265 119 200 91 520 258 780
406 130 74 548 341 570 363 3 3 34 25 70 49 188 129 575 439 750 601 180 166
183 177 10 31 -80 -68 -203 -169 -275 -225 -71 -55 -137 -106 -145 -113 -14
-11 -121 -90 -302 -222 -97 -71 -198 -139 -363 -247 -113 -73 -172 -110 -338
-208 -35 -20 -138 -76 -262 -141 -78 -40 -338 -155 -352 -155 -5 0 91 57 212
126 295 170 335 193 385 225 14 9 75 47 135 84 554 343 1009 694 1217 938 42
49 36 58 -7 11 -10 -11 -101 -93 -166 -149 -208 -181 -553 -428 -864 -621
-136 -85 -404 -244 -410 -244 -2 0 -34 -17 -72 -38 -135 -76 -202 -111 -403
-212 -178 -89 -543 -260 -556 -260 -2 0 -23 -9 -47 -20 -66 -30 -274 -109
-303 -114 -22 -4 -25 -2 -21 14 6 25 10 25 -76 -4 -40 -13 -98 -31 -130 -40
-40 -12 -64 -26 -79 -47 -24 -32 -48 -40 -273 -99 -251 -66 -351 -91 -375 -96
-14 -3 -79 -18 -145 -34 -66 -16 -131 -31 -145 -33 -14 -3 -56 -12 -95 -21
-38 -9 -81 -17 -95 -20 -14 -2 -36 -7 -50 -10 -14 -3 -38 -8 -55 -11 -16 -3
-93 -17 -170 -31 -77 -14 -153 -27 -168 -29 -16 -2 -40 -6 -55 -9 -15 -3 -45
-8 -67 -11 -22 -3 -67 -10 -100 -15 -33 -5 -85 -12 -115 -15 -30 -3 -66 -8
-80 -10 -47 -7 -227 -25 -303 -30 -133 -10 -354 -18 -477 -18 -142 0 -405 11
-430 18 -8 3 -31 6 -50 9 -19 2 -74 14 -121 25 -47 11 -115 23 -150 26 -35 3
-82 8 -104 11 -53 6 -225 14 -405 18 -80 2 -179 9 -220 16 -41 6 -84 13 -95
14 -11 2 -48 9 -82 15 -35 7 -75 14 -90 17 -65 10 -355 79 -478 113 -328 90
-952 308 -1190 416 -16 7 -77 34 -135 58 -146 62 -469 202 -565 244 -136 59
-317 149 -411 204 -49 28 -98 57 -109 63 -96 55 -346 233 -520 371 -49 39
-166 129 -260 200 -533 404 -869 690 -1220 1040 -241 241 -279 282 -564 610
-97 111 -304 382 -404 530 -561 820 -983 1719 -1257 2670 -28 99 -53 187 -55
195 -2 8 -19 78 -38 155 -19 77 -45 185 -56 240 -12 55 -26 118 -31 140 -8 36
-19 89 -35 180 -12 70 -47 282 -51 310 -2 17 -6 46 -9 65 -6 38 -11 73 -21
160 -3 30 -8 63 -9 72 -2 9 -6 52 -10 95 -3 43 -8 85 -10 93 -2 8 -7 56 -10
105 -3 50 -8 110 -10 135 -25 302 -25 956 0 1270 7 89 16 186 20 220 2 19 7
64 11 100 3 36 7 79 10 95 2 17 6 55 10 85 3 30 8 64 10 74 2 11 8 54 14 95 6
42 12 87 15 101 33 190 57 326 60 330 2 3 6 23 9 45 4 22 13 67 21 101 8 34
16 73 19 85 3 13 7 33 10 44 20 86 28 122 31 138 2 10 14 52 25 95 12 42 24
86 26 97 9 50 113 391 170 560 66 196 211 574 273 708 17 37 31 69 31 72 0 7
79 175 165 350 248 504 530 963 874 1420 106 141 302 382 369 453 6 7 12 18
12 24 0 13 127 179 185 242 35 38 45 45 45 29 0 -29 10 -34 39 -19 30 16 122
110 140 144 11 20 9 23 -14 32 -22 8 -24 13 -15 30 14 26 355 368 480 482 52
47 156 136 230 198 180 150 170 141 215 175 22 16 42 33 45 36 7 8 220 165
320 235 541 380 1202 738 1830 991 74 30 144 58 155 63 11 5 88 33 170 63 336
123 825 266 1098 322 10 2 26 6 35 9 9 3 28 7 42 10 14 2 45 9 70 15 25 5 61
13 80 16 19 3 80 14 135 25 111 21 103 20 340 54 94 14 197 27 230 30 33 4 80
8 105 11 108 11 150 15 230 20 157 11 214 14 310 15 85 2 99 5 135 29 57 39
127 69 193 85 61 14 172 12 181 -3 3 -5 67 -8 141 -8 141 1 242 -6 298 -22 36
-11 41 -5 15 15 -17 12 -17 13 3 14 12 0 44 -4 72 -10 28 -5 85 -10 127 -11
74 -2 119 -18 53 -20 -113 -2 -148 -24 -40 -25 80 0 266 -12 298 -18 11 -2 48
-7 84 -11 36 -4 74 -9 85 -11 10 -2 37 -6 60 -9 22 -3 47 -8 55 -10 8 -2 33
-7 55 -10 23 -3 50 -7 60 -9 23 -4 194 -33 245 -40 19 -3 46 -8 60 -10 33 -6
96 -16 145 -22 133 -17 165 -20 165 -12 0 4 -11 8 -23 8 -13 0 -57 9 -98 19
-41 11 -90 22 -109 25 -41 7 -52 9 -148 31 -40 9 -71 19 -69 22 3 2 22 0 43
-6 22 -5 55 -12 74 -15 19 -3 60 -12 90 -19 30 -7 80 -13 110 -12 49 0 55 3
58 22 4 29 19 33 72 17 25 -7 97 -27 160 -44 146 -40 585 -191 599 -206 3 -4
-3 -4 -14 0 -11 3 -51 12 -90 20 -38 8 -78 18 -87 21 -10 4 -18 3 -18 -1 0 -5
42 -22 93 -37 50 -16 106 -35 122 -42 17 -7 75 -31 130 -54 55 -22 95 -40 90
-41 -21 0 -168 44 -395 120 -238 80 -430 135 -414 121 5 -5 68 -28 139 -51
614 -200 1391 -507 1855 -733 123 -60 132 -64 105 -42 -11 9 -72 41 -135 72
-285 138 -381 186 -377 190 3 2 56 -13 118 -33 63 -21 124 -37 137 -36 27 2
105 -36 232 -113 103 -63 174 -99 210 -109 49 -14 -303 187 -482 276 -44 21
-51 33 -10 15 60 -26 425 -219 557 -294 304 -174 668 -410 935 -609 127 -94
415 -319 446 -348 6 -6 35 -31 64 -55 29 -25 58 -50 64 -55 6 -6 31 -29 56
-50 210 -183 526 -496 754 -746 257 -282 642 -787 831 -1088 128 -203 187
-307 275 -483 100 -203 150 -287 194 -329 63 -58 30 28 -65 170 -92 139 -95
146 -78 167 27 31 7 105 -40 147 -21 19 -21 19 -21 -2 0 -29 -14 -35 -32 -14
-8 9 -48 76 -88 147 -41 72 -103 177 -138 235 -62 101 -280 430 -292 440 -3 3
-28 37 -56 76 -28 38 -58 79 -66 90 -9 10 -64 80 -124 154 -186 233 -304 366
-545 615 -76 77 -152 158 -170 180 -30 35 -54 63 -94 109 -43 50 -43 55 0 19
82 -67 411 -407 555 -573 59 -67 146 -170 209 -245 175 -210 366 -458 520
-675 113 -159 156 -217 137 -183 -3 6 -2 14 2 17 5 3 21 -18 36 -47 15 -29 43
-79 62 -112 187 -316 482 -933 633 -1325 29 -74 62 -157 73 -185 11 -27 21
-54 23 -60 1 -5 5 -17 8 -25 90 -239 216 -629 324 -1000 13 -47 25 -91 27 -98
1 -7 8 -18 14 -24 9 -9 12 -7 12 10 0 14 5 20 14 16 14 -5 32 -77 92 -359 11
-52 44 -223 48 -250 2 -16 11 -68 20 -115 14 -82 17 -98 32 -205 3 -27 8 -59
10 -70 2 -11 7 -47 10 -80 4 -33 8 -62 9 -65 2 -3 6 -44 10 -90 4 -47 8 -92
10 -100 3 -8 7 -57 11 -109 3 -52 8 -103 10 -114 8 -43 18 -354 19 -574 0
-127 3 -230 6 -228 3 2 6 25 8 51 1 26 4 51 6 55 8 12 19 274 19 454 -1 167
-9 402 -19 485 -2 19 -6 69 -10 110 -4 41 -8 89 -10 105 -2 17 -7 55 -10 85
-9 79 -29 221 -46 322 -42 252 -70 395 -134 678 -49 219 -166 630 -256 900
-66 197 -189 535 -224 615 -8 17 -26 59 -40 95 -15 36 -35 83 -45 105 -10 22
-32 74 -50 115 -18 41 -61 134 -96 206 -52 109 -71 138 -109 170 -53 43 -79
89 -107 187 -27 99 -98 237 -225 437 -179 282 -377 563 -581 825 -81 104 -315
387 -351 424 -9 10 -47 53 -86 97 -295 332 -737 752 -1100 1045 -44 35 -87 69
-95 76 -61 50 -177 138 -240 183 -41 30 -84 63 -94 72 -11 10 -23 18 -27 18
-4 0 -14 6 -21 13 -7 7 -80 60 -163 116 -139 96 -208 148 -143 108 38 -24 49
-21 13 3 -16 11 -36 18 -43 15 -7 -3 -11 -1 -8 4 3 5 -5 16 -19 25 -29 19 -39
20 -29 4 4 -7 3 -8 -5 -4 -6 4 -9 12 -6 17 6 8 -8 13 -27 10 -5 0 -7 4 -5 11
1 6 -7 14 -18 16 -11 2 -22 8 -25 12 -6 9 -141 93 -240 150 -640 366 -1296
646 -1988 851 -234 69 -420 117 -652 168 -164 36 -464 94 -545 105 -17 2 -64
9 -105 15 -41 6 -93 14 -115 17 -22 3 -51 7 -65 9 -35 5 -94 13 -170 21 -36 4
-76 8 -90 10 -14 2 -56 6 -95 9 -38 3 -92 8 -120 11 -27 3 -77 8 -110 9 -33 2
-118 7 -190 12 -254 16 -1163 8 -1285 -11 -14 -2 -68 -7 -120 -11 -52 -3 -113
-8 -135 -10 -126 -13 -154 -16 -190 -21 -22 -2 -56 -6 -75 -8 -30 -3 -99 -12
-240 -32 -20 -2 -45 -6 -55 -8 -35 -6 -104 -18 -128 -21 -26 -3 -72 -11 -177
-30 -41 -8 -88 -16 -105 -19 -16 -2 -51 -9 -78 -15 -26 -6 -64 -14 -85 -17
-20 -2 -71 -22 -112 -42 -84 -41 -311 -175 -306 -180 2 -1 21 4 42 12 67 26
306 86 441 111 16 3 37 7 48 9 11 2 78 16 150 31 71 14 131 28 133 30 15 15
-20 22 -95 19 -117 -5 -81 10 62 26 174 19 265 23 265 13 0 -5 -22 -20 -50
-33 -27 -13 -49 -25 -47 -26 2 -2 30 3 62 11 33 7 80 16 105 20 24 4 47 8 50
10 3 2 29 6 59 10 30 4 63 9 75 11 12 2 44 6 71 9 l50 5 -43 -14 c-23 -8 -53
-21 -65 -29 -12 -8 -53 -17 -92 -21 -68 -7 -98 -11 -167 -20 -18 -3 -55 -8
-83 -11 -27 -4 -57 -8 -65 -10 -8 -3 -33 -7 -55 -10 -144 -18 -458 -83 -695
-144 -400 -102 -927 -285 -1304 -453 -172 -77 -192 -86 -366 -171 -590 -289
-1165 -646 -1685 -1046 -99 -77 -302 -238 -315 -251 -3 -3 -36 -32 -75 -65
-38 -33 -75 -64 -81 -70 -32 -30 -147 -127 -288 -245 -88 -72 -165 -137 -171
-143 -7 -7 -36 -32 -66 -57 -98 -83 -275 -264 -391 -400 -244 -288 -418 -525
-788 -1080 -90 -135 -167 -246 -172 -248 -4 -2 -8 -8 -8 -13 0 -8 -91 -140
-113 -164 -11 -12 70 148 109 215 175 302 361 577 596 877 65 83 124 157 131
165 7 7 30 36 52 63 22 28 42 52 45 55 3 3 55 61 115 130 114 131 583 604 745
751 52 48 107 97 121 110 14 13 56 51 93 84 38 33 80 71 95 83 44 40 73 65
146 127 39 33 72 62 75 65 8 9 221 185 347 287 80 65 118 90 132 86 12 -3 46
11 88 35 61 36 279 185 343 235 83 64 235 167 247 167 7 0 36 12 64 26 28 14
64 27 80 29 16 2 44 12 62 23 35 22 86 51 157 90 59 33 321 163 385 192 28 12
75 33 105 47 143 65 440 180 750 290 85 30 191 68 235 85 44 16 95 34 113 39
68 21 22 19 -57 -1 -113 -30 -132 -21 -31 14 89 30 144 62 135 76 -3 4 -17 4
-33 -1 -15 -5 -110 -37 -212 -71 -102 -33 -259 -90 -350 -125 -91 -36 -184
-71 -207 -79 -42 -16 -62 -39 -39 -47 6 -3 29 1 50 8 69 24 19 -10 -71 -49
-79 -34 -82 -34 -68 -12 15 23 15 23 -22 21 -37 -3 -113 -32 -258 -99 -38 -18
-113 -52 -165 -77 -212 -97 -658 -329 -850 -442 -20 -11 -28 -13 -20 -5 25 26
322 209 475 294 22 12 78 43 125 69 182 102 559 285 790 382 450 190 858 327
1370 459 16 4 212 51 245 58 41 10 71 16 125 27 30 5 64 12 75 15 43 9 74 15
180 33 61 11 128 23 150 26 22 3 65 10 95 15 30 5 78 11 105 15 28 3 64 8 80
10 66 10 103 14 175 20 41 3 86 8 100 10 14 3 59 7 100 10 41 3 95 8 120 10
288 24 1152 24 1365 0 17 -2 75 -6 130 -10 55 -4 111 -8 125 -11 14 -2 59 -6
101 -9 41 -3 86 -7 98 -10 13 -2 56 -7 95 -11 39 -3 74 -8 77 -10 3 -1 28 -6
55 -9 54 -6 195 -27 277 -40 35 -6 350 -64 382 -71 129 -26 307 -67 417 -95
68 -17 130 -32 138 -34 56 -11 492 -141 605 -180 177 -61 395 -139 420 -150
17 -7 83 -34 149 -60 112 -44 287 -119 421 -180 33 -15 168 -80 300 -145 132
-64 267 -130 300 -146 58 -27 215 -111 320 -169 240 -135 611 -390 905 -623
84 -67 337 -278 350 -292 3 -3 46 -41 95 -85 122 -107 213 -195 447 -424 206
-202 234 -226 280 -237 24 -5 213 -174 195 -174 -4 0 -22 8 -42 17 -19 9 -38
14 -41 10 -15 -14 109 -153 126 -142 6 4 8 11 5 16 -4 5 -1 9 6 9 13 0 99 -87
132 -134 21 -30 20 -30 -23 7 -24 20 -47 37 -52 37 -11 0 -10 -18 1 -22 25 -8
282 -273 367 -378 16 -19 31 -37 35 -40 3 -3 30 -36 59 -75 30 -38 58 -74 62
-80 167 -206 472 -692 680 -1085 93 -174 348 -692 348 -706 0 -1 19 -45 43
-96 24 -51 56 -123 72 -161 15 -37 29 -66 31 -64 9 8 -102 312 -157 435 -16
34 -29 65 -29 67 0 7 -56 127 -95 205 -19 39 -33 70 -29 70 8 0 178 -355 256
-535 90 -207 179 -437 234 -605 8 -25 19 -54 23 -65 12 -28 106 -338 126 -415
2 -8 13 -46 24 -85 10 -38 38 -142 61 -230 23 -88 44 -164 47 -168 11 -18 32
16 28 46 -3 18 -7 57 -10 87 -5 51 -5 53 9 30 8 -14 17 -50 20 -80 4 -30 9
-71 11 -90 3 -19 7 -56 10 -82 5 -45 11 -88 21 -153 17 -104 65 -247 79 -233
6 5 -51 319 -81 453 -13 60 -26 119 -28 130 -21 105 -104 364 -127 391 -6 7
-12 34 -14 61 -7 122 -119 435 -204 573 -16 26 -32 64 -35 84 -14 89 -48 211
-81 296 -8 19 -29 76 -48 125 -54 139 -110 263 -211 465 -82 165 -217 418
-236 445 -4 6 -31 55 -60 110 -50 94 -81 152 -137 254 -13 24 -68 116 -121
203 -53 87 -102 167 -107 176 -25 43 -225 336 -284 417 -131 179 -427 553
-471 595 -3 3 -23 25 -44 50 -174 200 -455 492 -662 686 -166 156 -425 380
-559 484 -38 30 -72 57 -75 60 -10 12 -258 198 -360 272 -220 157 -601 404
-745 483 -22 12 -78 45 -125 72 -189 110 -587 313 -750 383 -41 18 -85 44 -96
59 -43 52 -159 119 -314 181 -85 34 -164 65 -175 70 -11 4 -36 13 -55 20 -19
7 -44 16 -55 21 -38 17 -470 158 -590 192 -156 45 -366 101 -480 128 -49 11
-97 23 -105 25 -63 15 -381 78 -495 99 -211 37 -475 76 -620 90 -33 3 -71 8
-85 10 -14 2 -60 6 -102 10 -43 3 -90 8 -105 10 -16 2 -80 6 -143 10 -63 4
-131 8 -150 10 -73 8 -717 24 -723 19z m302 -548 c101 -3 187 -8 190 -11 2 -3
-191 -5 -430 -5 -238 1 -456 -1 -484 -4 -27 -3 -77 -8 -109 -12 -67 -7 -164
-30 -180 -43 -6 -5 -63 -12 -126 -16 -63 -4 -119 -10 -124 -13 -5 -3 -6 0 -2
6 3 6 30 15 59 22 28 6 70 16 92 22 34 9 37 12 20 19 -15 6 -11 8 20 9 22 1
58 3 80 5 131 13 179 15 355 21 107 4 196 7 197 8 3 2 268 -2 442 -8z m2268
-22 c-3 -3 -12 -4 -19 -1 -8 3 -5 6 6 6 11 1 17 -2 13 -5z m40 -10 c-3 -3 -12
-4 -19 -1 -8 3 -5 6 6 6 11 1 17 -2 13 -5z m104 -23 c186 -48 307 -87 328
-106 23 -22 -61 -1 -249 64 -184 64 -202 73 -79 42z m-2783 3 c-3 -2 -68 -6
-144 -9 -76 -2 -200 -7 -274 -11 -74 -3 -133 -4 -130 0 3 3 60 8 125 12 66 3
121 7 122 8 5 4 305 5 301 0z m26 -184 c197 -3 166 -14 -96 -36 -59 -5 -152 6
-198 23 -28 10 15 18 87 16 37 -1 131 -2 207 -3z m511 -5 c44 -4 94 -9 110
-10 34 -2 139 -13 200 -21 91 -11 113 -14 170 -20 33 -3 71 -7 85 -9 14 -1 59
-6 100 -9 41 -4 86 -9 100 -11 28 -4 126 -13 210 -20 50 -4 53 -3 36 10 -11 8
-31 15 -45 16 -14 1 -37 5 -51 10 -46 16 141 0 245 -22 55 -11 118 -22 140
-26 22 -3 42 -7 44 -9 7 -7 -193 -6 -294 1 -48 3 -188 15 -230 19 -94 10 -158
16 -220 22 -38 3 -77 8 -86 9 -68 13 -331 20 -524 15 -91 -3 -120 3 -129 28
-3 9 -8 22 -11 28 -6 11 24 11 150 -1z m2160 -169 c28 -5 29 -4 11 9 -28 21
-4 19 64 -5 49 -17 52 -19 23 -20 -36 0 -41 -10 -17 -34 20 -21 7 -21 -71 -1
-72 19 -94 37 -75 60 8 10 17 12 24 6 6 -6 25 -12 41 -15z m900 -446 c144 -54
338 -140 331 -147 -2 -2 -28 7 -57 20 -30 14 -108 46 -174 72 -66 26 -135 54
-153 62 -18 9 -36 12 -40 8 -4 -4 -2 -10 4 -12 21 -7 78 -53 66 -53 -6 0 -40
13 -74 29 -65 29 -226 93 -265 105 -13 4 -23 13 -23 20 0 13 -52 35 -166 71
-28 8 -60 22 -70 30 -21 16 408 -126 621 -205z m187 -111 c51 -22 111 -48 133
-58 22 -10 76 -33 120 -51 135 -55 176 -74 182 -84 6 -8 -19 -6 -86 8 -48 11
-253 91 -238 94 8 2 41 -6 73 -17 98 -35 71 -16 -48 34 -143 59 -257 113 -241
114 7 1 54 -17 105 -40z m183 -57 c-3 -3 -11 0 -18 7 -9 10 -8 11 6 5 10 -3
15 -9 12 -12z m1354 -545 c62 -36 156 -111 186 -151 31 -40 31 -67 0 -39 -11
10 -58 47 -105 82 -85 64 -130 106 -130 123 0 12 3 11 49 -15z m747 -566 c214
-191 264 -263 64 -91 -105 90 -150 135 -150 151 0 13 22 -3 86 -60z m-15928
-9212 c21 -118 14 -186 -8 -78 -7 35 -14 73 -15 84 -2 11 -5 36 -8 55 -3 19
-8 62 -11 95 l-5 60 14 -55 c8 -30 23 -103 33 -161z"/>
<path d="M7805 20260 c-3 -6 1 -7 9 -4 18 7 21 14 7 14 -6 0 -13 -4 -16 -10z"/>
<path d="M15910 19406 c0 -2 7 -7 16 -10 8 -3 12 -2 9 4 -6 10 -25 14 -25 6z"/>
<path d="M4497 16865 c-3 -9 -1 -2033 2 -2045 2 -8 1039 -6 1047 2 4 4 7 278
7 608 l0 600 891 -2 891 -3 0 -3025 c1 -1664 -1 -3031 -3 -3037 -3 -10 -84
-13 -358 -13 l-354 0 0 -237 c-1 -379 -1 -442 -1 -548 l1 -100 1263 0 1262 0
3 442 2 443 -402 2 -403 3 0 3038 0 3037 1027 0 c815 0 1028 -3 1029 -12 1 -7
3 -276 4 -598 1 -322 3 -590 4 -595 1 -7 182 -10 527 -10 l526 0 1 1023 c0
562 -3 1026 -7 1030 -12 11 -6955 9 -6959 -3z"/>
<path d="M12414 16871 c-2 -2 -4 -203 -4 -445 l0 -441 370 0 370 0 0 -3017 0
-3018 -370 0 -370 0 0 -443 0 -442 1268 0 1267 -1 -1 431 c-1 236 -2 436 -3
443 -1 9 -86 12 -390 12 l-389 0 0 1330 0 1330 1342 0 1342 0 0 428 c0 235 -3
429 -7 432 -4 3 -608 5 -1342 5 l-1335 0 0 1255 0 1255 1391 0 1392 0 5 -660
5 -659 523 -1 c287 0 523 2 523 5 4 17 3 2200 -1 2201 -15 4 -5582 3 -5586 0z"/>
<path d="M6386 7203 c-106 -32 -178 -107 -212 -222 -15 -49 -17 -117 -17 -536
0 -264 2 -500 6 -525 25 -193 166 -303 375 -293 161 8 267 83 311 220 18 56
22 93 23 208 0 77 0 147 -1 155 -1 13 -19 16 -113 15 l-113 0 -1 -140 c-1
-155 -14 -203 -60 -224 -36 -16 -106 -14 -133 5 -50 35 -51 48 -51 561 1 546
0 536 78 563 37 13 47 13 84 0 66 -23 80 -56 82 -198 l1 -117 105 -1 c58 0
110 1 115 3 11 4 11 171 0 256 -14 113 -83 209 -182 254 -48 23 -74 27 -153
29 -62 2 -112 -3 -144 -13z"/>
<path d="M9543 7205 c-128 -39 -210 -137 -229 -270 -9 -66 -11 -901 -2 -989
19 -183 112 -288 279 -314 137 -21 264 13 335 90 46 50 63 81 80 150 19 73 26
334 9 347 -5 4 -57 7 -115 7 l-105 -2 -1 -126 c-2 -193 -15 -229 -91 -246 -54
-12 -102 5 -130 47 l-23 34 1 481 c0 346 3 491 12 515 17 47 72 76 131 67 79
-12 102 -66 100 -233 0 -51 3 -84 10 -86 6 -2 58 -3 116 -2 l105 0 -2 110 c-2
146 -7 182 -36 247 -32 72 -82 122 -154 155 -48 23 -74 27 -153 29 -56 2 -112
-3 -137 -11z"/>
<path d="M13285 7215 c-5 -2 -28 -9 -51 -14 -88 -23 -170 -104 -214 -211 -22
-55 -26 -1021 -4 -1105 44 -168 161 -256 344 -258 97 -1 175 19 235 59 54 35
83 74 113 147 23 55 26 81 31 222 3 88 4 327 1 530 -5 349 -7 373 -27 423 -33
81 -84 136 -159 173 -58 29 -76 33 -162 35 -53 1 -101 1 -107 -1z m153 -235
c59 -36 59 -38 58 -565 -1 -454 -2 -482 -20 -512 -23 -38 -54 -53 -107 -53
-59 0 -97 26 -112 77 -9 30 -12 170 -12 510 1 427 3 471 19 501 30 57 115 78
174 42z"/>
<path d="M4499 7187 c-3 -43 -4 -176 -1 -192 3 -19 11 -20 128 -19 l124 1 0
-663 0 -663 53 -3 c28 -2 84 -2 122 0 l70 3 0 662 0 662 120 1 c66 1 123 2
128 3 4 1 7 50 7 111 l0 110 -375 -1 c-280 0 -375 -3 -376 -12z"/>
<path d="M5369 7187 c-1 -16 -1 -1508 0 -1527 1 -13 44 -15 329 -14 l327 2 3
111 3 111 -211 0 -210 0 0 238 0 238 161 0 c88 -1 164 1 168 4 4 3 7 53 7 111
l0 106 -156 -1 c-85 -1 -161 0 -167 2 -10 3 -13 53 -13 206 l0 202 198 -1
c108 0 203 1 210 3 8 3 12 35 12 113 l0 108 -330 0 c-244 -1 -330 -4 -331 -12z"/>
<path d="M7020 6424 l0 -774 28 -1 c76 -3 205 0 210 5 3 4 6 160 6 349 l1 342
127 1 c82 0 128 -3 131 -10 2 -6 3 -163 2 -348 l0 -338 52 -1 c29 0 73 -1 98
-1 25 0 56 1 70 1 l25 1 0 775 0 774 -122 -2 -123 -2 0 -312 c0 -205 -3 -313
-10 -314 -15 -1 -195 -1 -226 0 l-26 1 -1 303 c0 166 -1 308 -1 314 -1 9 -33
13 -121 12 l-120 0 0 -775z"/>
<path d="M7950 6425 l0 -773 53 -4 c28 -1 77 -1 107 2 l55 5 2 553 c1 305 3
555 5 557 2 2 22 -69 45 -158 41 -163 102 -399 194 -757 28 -107 51 -196 52
-197 4 -3 76 -5 162 -4 l90 1 -1 757 c-1 417 -2 766 -3 776 -1 15 -12 17 -106
16 -72 0 -105 -4 -106 -12 0 -7 -1 -217 -1 -467 l-1 -455 -24 85 c-13 47 -25
94 -27 105 -3 11 -32 126 -65 255 -34 129 -75 292 -93 362 l-32 128 -153 -1
-153 0 0 -774z"/>
<path d="M8899 7182 c-1 -9 -2 -358 -3 -774 l-1 -758 48 -1 c59 -1 95 -1 152
0 l45 1 0 775 0 774 -120 0 c-107 0 -120 -1 -121 -17z"/>
<path d="M10356 7191 c-2 -3 -7 -31 -10 -61 -4 -30 -20 -136 -37 -235 -16 -99
-32 -193 -35 -210 -2 -16 -9 -55 -14 -85 -5 -30 -12 -73 -15 -95 -3 -23 -8
-52 -10 -65 -5 -22 -13 -75 -29 -180 -3 -19 -17 -105 -31 -190 -35 -208 -33
-199 -40 -250 -4 -24 -8 -47 -10 -51 -2 -3 -7 -32 -10 -65 l-7 -59 99 3 c126
3 126 3 129 27 7 42 24 162 29 205 4 25 8 51 10 58 3 9 40 12 139 12 150 0
139 6 151 -80 3 -25 8 -54 10 -65 1 -11 6 -48 10 -83 4 -34 12 -65 18 -69 6
-3 25 -6 44 -5 18 0 69 1 114 1 l80 1 -5 38 c-4 20 -10 60 -16 87 -5 28 -12
66 -14 85 -14 89 -47 293 -60 370 -8 47 -17 103 -21 125 -3 23 -7 52 -10 65
-3 13 -7 42 -10 65 -4 22 -13 81 -21 130 -9 50 -17 101 -19 115 -4 27 -53 320
-60 359 -2 13 -7 43 -11 67 l-6 42 -164 0 c-90 0 -166 -3 -168 -7z m168 -326
c4 -27 11 -77 16 -110 5 -33 11 -82 15 -110 3 -27 10 -75 15 -105 5 -30 12
-75 15 -100 6 -48 16 -115 20 -140 2 -8 6 -43 10 -77 l7 -63 -106 0 c-122 0
-113 -10 -96 115 6 39 13 88 16 110 3 22 9 67 14 100 5 33 12 83 15 110 4 28
15 110 26 183 10 73 19 136 19 139 0 22 9 -10 14 -52z"/>
<path d="M11060 7143 c-3 -346 0 -1486 4 -1490 7 -7 626 -7 633 0 5 5 8 155 4
205 -1 9 -48 12 -200 12 l-199 0 0 633 c0 347 -1 646 -1 663 l-1 31 -120 2
-120 1 0 -57z"/>
<path d="M12259 7182 c-3 -72 -1 -1523 3 -1527 4 -4 138 -9 206 -6 l32 1 0
335 c0 312 1 335 18 336 9 0 80 1 157 2 l140 2 0 108 c1 59 -1 108 -4 108 -3
1 -73 2 -156 3 l-150 1 -3 215 -2 216 197 0 198 0 5 80 c3 43 3 93 2 110 l-4
31 -319 1 c-294 1 -319 0 -320 -16z"/>
<path d="M13909 7198 c-1 -2 -2 -351 -3 -775 l-1 -773 25 -1 c30 -1 154 -1
193 0 l27 1 0 330 0 330 66 0 c85 0 131 -21 152 -69 12 -28 16 -85 17 -271 2
-263 8 -320 33 -321 52 -2 225 1 229 4 2 3 -1 24 -6 48 -6 24 -12 157 -14 294
-3 208 -7 258 -22 300 -20 56 -66 111 -108 129 l-28 13 40 26 c88 58 120 154
116 348 -4 176 -21 235 -90 302 -72 70 -118 80 -387 84 -131 2 -239 2 -239 1z
m420 -237 c38 -21 52 -72 53 -195 0 -195 -19 -224 -156 -231 l-76 -4 0 223 0
224 78 -3 c43 -1 88 -8 101 -14z"/>
<path d="M14799 7192 c0 -4 -1 -352 -2 -775 l-2 -767 60 -1 c192 -3 598 1 602
5 5 4 7 161 4 204 -1 9 -50 12 -210 12 l-208 0 1 238 1 237 155 2 c85 0 160 1
166 2 7 1 10 37 8 104 -1 56 -2 105 -3 108 0 4 -67 6 -148 7 -82 0 -155 0
-164 1 -15 1 -17 23 -17 204 l1 203 205 0 c166 -1 206 2 210 13 3 8 5 57 5
110 l0 96 -331 2 c-183 1 -332 -2 -333 -5z"/>
<path d="M15545 7147 c3 -29 8 -59 10 -67 2 -8 7 -35 10 -60 3 -25 10 -70 15
-100 5 -30 12 -71 14 -90 3 -19 11 -78 20 -130 8 -52 17 -115 21 -140 3 -25
10 -70 15 -100 5 -30 12 -77 16 -105 3 -27 8 -59 10 -70 2 -11 6 -38 9 -60 3
-22 7 -49 9 -61 2 -12 7 -45 11 -75 4 -30 8 -56 10 -59 2 -3 6 -33 10 -65 3
-33 8 -67 10 -75 4 -13 18 -105 31 -199 2 -19 6 -36 8 -38 3 -3 191 -6 277 -4
l47 1 8 58 c4 31 8 59 9 62 2 6 18 110 20 130 3 28 17 125 21 145 2 10 6 37 9
60 3 22 12 81 20 130 8 50 17 110 21 135 3 25 8 52 9 60 5 29 15 95 20 135 3
22 8 51 10 65 5 27 8 45 25 165 7 44 13 87 15 95 2 8 6 38 9 65 4 28 9 57 11
65 2 8 6 38 10 65 3 28 8 65 11 83 l6 33 -113 -3 c-106 -3 -114 -4 -114 -23
-1 -11 -4 -38 -8 -60 -3 -22 -9 -60 -12 -85 -3 -25 -8 -56 -10 -70 -2 -14 -7
-49 -10 -79 -4 -30 -8 -61 -10 -70 -1 -9 -6 -45 -10 -81 -4 -36 -9 -72 -10
-81 -2 -9 -6 -40 -10 -70 -4 -30 -8 -63 -10 -74 -1 -11 -5 -45 -9 -75 -4 -30
-9 -66 -11 -80 -2 -14 -7 -50 -10 -80 -3 -30 -8 -62 -10 -70 -2 -8 -7 -45 -10
-82 -7 -75 -22 -137 -25 -103 -2 26 -5 50 -13 105 -4 25 -9 68 -12 95 -3 28
-8 61 -10 75 -3 14 -7 45 -10 70 -7 57 -9 78 -29 220 -8 63 -18 133 -20 155
-5 41 -33 244 -41 302 -3 18 -7 57 -11 85 -9 83 0 78 -134 77 l-121 -1 6 -51z"/>
<path d="M16450 6424 l0 -774 33 -1 c159 -2 618 0 624 4 6 4 9 160 4 210 -1 4
-95 7 -211 7 l-210 0 3 238 2 237 165 0 165 0 0 110 0 110 -165 1 -165 0 -2
205 -2 205 197 -1 c108 0 204 1 212 3 12 2 15 18 13 70 -1 37 -2 86 -2 109
l-1 42 -330 0 -330 -1 0 -774z"/>
<path d="M17252 6425 c1 -563 4 -775 12 -775 20 -1 171 -2 201 -1 l31 1 -1
313 c0 171 1 320 3 330 4 14 16 17 72 17 86 0 124 -20 146 -76 12 -31 16 -93
18 -285 3 -258 8 -299 35 -300 9 0 65 -1 124 -2 l108 -2 -7 25 c-14 55 -15 83
-18 310 -3 231 -11 303 -41 360 -16 32 -83 90 -102 90 -24 0 -13 17 18 30 17
8 44 31 60 52 48 67 62 128 62 268 0 199 -19 266 -95 335 -78 70 -113 77 -389
82 l-237 4 0 -776z m429 532 c39 -28 48 -67 46 -205 -3 -185 -21 -210 -158
-218 -60 -3 -69 -1 -70 14 -3 44 -5 418 -2 424 6 13 161 1 184 -15z"/>
<path d="M11644 6532 c-19 -3 -20 -9 -20 -110 l1 -107 243 -2 243 -3 -3 112
-3 111 -220 1 c-121 1 -229 0 -241 -2z"/>
<path d="M17794 4288 l-19 -23 23 19 c21 18 27 26 19 26 -2 0 -12 -10 -23 -22z"/>
</g>
</svg>
